# xmcd
#
# Track frame offsets:
#	150
#	13624
#	26585
#	34939
#	46244
#	59236
#	75144
#	86590
#	97768
#	107835
#	117408
#	126377
#	136933
#	148938
#	161534
#	171417
#	183372
#	196477
#	206591
#	216843
#
# Disc length: 3081 seconds
#
# Revision: 1
# Processed by: cddbd v1.5.2PL0 Copyright (c) Steve Scherf et al.
# Submitted via: audiograbber 1.83.01
#
DISCID=1e0c0714
DTITLE=Various Artist - 200 Country Classics Vol.1  -  CD 2
DYEAR=2008
DGENRE=Country
TTITLE0=Lynn Anderson - Keep Me In Mind
TTITLE1=Charly Pride - Kaw-Liga
TTITLE2=Johnny Cash - Country Boy
TTITLE3=Patsy Cline - Crazy Dreams
TTITLE4=Hank Williams - Jambalaya (On The Bayou)
TTITLE5=Skeeter Davis - I Honestly Love You
TTITLE6=Bill Monroe and His Bluegrass Boys - Orange Blossom Special
TTITLE7=Razzy Bailey - 9999999 Tears
TTITLE8=Porter Wagoner - The Green Green Grass Of Home
TTITLE9=Frankie Laine - Gunfight At The O K Corral
TTITLE10=Buck Owens - Rhythm And Booze
TTITLE11=Dave Dudley - Cowboy Boots
TTITLE12=Connie Francis - Among My Souvenirs
TTITLE13=David Houston - My Exclusive Dreams
TTITLE14=Sceeter Davis - I Can`t Stand Mad At You
TTITLE15=Bob Wills And Texas Playboys - Take Me Back To Tulsa
TTITLE16=Merle Haggard - Kentucky Gambler
TTITLE17=Patsy Cline - Three Cigarettes In The Ashtray
TTITLE18=John Anderson - If There Were No Memories
TTITLE19=The Carter Family - Wildwood Flower
EXTD=
EXTT0=
EXTT1=
EXTT2=
EXTT3=
EXTT4=
EXTT5=
EXTT6=
EXTT7=
EXTT8=
EXTT9=
EXTT10=
EXTT11=
EXTT12=
EXTT13=
EXTT14=
EXTT15=
EXTT16=
EXTT17=
EXTT18=
EXTT19=
PLAYORDER=
